<?xml version="1.0" encoding="UTF-8"?>
<svg width="18px" height="18px" viewBox="0 0 18 18" version="1.1" xmlns="http://www.w3.org/2000/svg">
    <g stroke="none" stroke-width="1" fill="none" fill-rule="evenodd">
        <path d="M17,9 C17,4.58172178 13.4182782,1 9,1 C4.58172178,1 1,4.58172178 1,9 C1,13.0220296 3.97405891,16.3605276 7.84375,16.9109997 L7.84375,11.2890625 L5.79687497,11.2890625 L5.79687497,9 L7.84375,9 L7.84375,7.26562497 C7.84375,5.29296878 8.93164062,4.28125 10.7147352,4.28125 C11.5693359,4.28125 12.46875,4.4609375 12.46875,4.4609375 L12.46875,6.42187503 L11.4746094,6.42187503 C10.4960938,6.42187503 10.15625,7.01171878 10.15625,7.61718753 L10.15625,9 L12.3671875,9 L12.0146484,11.2890625 L10.15625,11.2890625 L10.15625,16.9109997 C14.0259411,16.3605276 17,13.0220296 17,9" fill="#FFFFFF" fill-rule="nonzero"/>
    </g>
</svg> 